<svg width="127" height="46" viewBox="0 0 127 46" fill="none" xmlns="http://www.w3.org/2000/svg">
<path d="M126.493 0.63916L120.72 25.5911L111.313 25.6196L112.794 21.1435H109.474L106.991 25.6338L97.4648 25.6622L113.183 0.681789L126.493 0.63916ZM114.514 16.7244C115.321 13.8967 116.413 10.3869 117.759 6.2093C114.723 11.0121 112.6 14.5077 111.388 16.7244H114.514Z" fill="white"/>
<path d="M102.906 9.91797L93.6937 9.94639L94.6957 7.68707C95.3238 6.2519 95.6379 5.3567 95.6229 5.00146C95.6229 4.63201 95.279 4.4615 94.6359 4.4615C94.0826 4.4615 93.6339 4.6178 93.2899 4.93041C92.9609 5.22881 92.5122 6.02455 91.9439 7.30341L86.6498 19.2679C86.1563 20.3762 85.9319 21.1293 85.9768 21.4703C86.0217 21.8256 86.3357 21.9961 86.9339 21.9961C87.592 21.9961 88.1154 21.7972 88.5342 21.3851C88.9379 20.9872 89.4016 20.2057 89.925 19.0405L91.2261 16.0849H89.4315L91.1065 12.3052L101.844 12.2768L95.937 25.6621H90.1493L90.0895 23.9002C89.1174 24.6675 88.0705 25.2501 86.9639 25.6479C85.8422 26.0458 84.6308 26.2305 83.3297 26.2447C81.7893 26.2447 80.4583 25.989 79.3516 25.4632C78.2449 24.9375 77.5121 24.2838 77.1682 23.5023C76.8092 22.7208 76.7345 21.9108 76.9438 21.044C77.1532 20.1915 77.6318 18.8984 78.3945 17.179L81.6697 9.76166C82.7166 7.37446 83.6737 5.6551 84.5112 4.57517C85.3487 3.49525 86.8292 2.50058 88.9529 1.59117C91.0616 0.695966 93.4843 0.227051 96.2211 0.227051C98.9131 0.227051 100.977 0.596499 102.398 1.37802C103.833 2.15955 104.581 3.08317 104.641 4.14889C104.701 5.22881 104.282 6.77765 103.37 8.83804L102.891 9.91797H102.906Z" fill="white"/>
<path d="M68.6901 0.823928L84.0342 0.76709L81.6413 5.75464L75.5097 5.76885L73.2215 10.5433L78.9494 10.5291L76.6912 15.2608L70.9483 15.275L68.3162 20.7599L75.076 20.7457L72.6831 25.7333L56.7109 25.7759L68.6901 0.823928Z" fill="white"/>
<path d="M118.88 30.2516H115.59L116.039 29.3848C116.248 28.9728 116.338 28.717 116.308 28.6033C116.278 28.4896 116.173 28.4328 115.979 28.4328C115.77 28.4328 115.575 28.5038 115.381 28.6601C115.201 28.8165 115.022 29.0438 114.872 29.3422C114.678 29.7401 114.588 30.0385 114.603 30.2374C114.618 30.4363 114.827 30.6779 115.231 30.9621C116.383 31.772 117.041 32.4399 117.175 32.9656C117.325 33.4914 117.101 34.3298 116.517 35.4949C116.084 36.3475 115.665 36.9585 115.231 37.3706C114.797 37.7685 114.199 38.1095 113.407 38.3795C112.614 38.6495 111.791 38.7916 110.939 38.7916C109.997 38.7916 109.264 38.6353 108.755 38.3369C108.247 38.0242 108.008 37.6264 108.038 37.1433C108.083 36.6601 108.322 35.9781 108.77 35.0829L109.159 34.3013H112.449L111.717 35.7365C111.492 36.177 111.388 36.4612 111.418 36.5891C111.447 36.717 111.582 36.7738 111.806 36.7738C112.046 36.7738 112.255 36.6885 112.449 36.5322C112.644 36.3759 112.823 36.1344 112.988 35.8218C113.347 35.1255 113.466 34.6708 113.347 34.4576C113.227 34.2445 112.853 33.8893 112.24 33.3777C111.612 32.8662 111.223 32.4967 111.059 32.2694C110.894 32.042 110.819 31.7294 110.834 31.3173C110.849 30.9195 111.014 30.3937 111.343 29.7685C111.806 28.8591 112.27 28.1912 112.749 27.7649C113.227 27.3387 113.825 27.0118 114.528 26.7703C115.246 26.5287 116.024 26.415 116.861 26.415C117.774 26.415 118.491 26.5429 119.015 26.7987C119.523 27.0545 119.792 27.3813 119.807 27.7792C119.807 28.177 119.583 28.8449 119.105 29.7827L118.865 30.2516H118.88Z" fill="white"/>
<path d="M109.355 26.6851L105.377 38.55H101.758L102.64 36.4328H101.369L100.098 38.5642H96.4336L104.225 26.6993H109.355V26.6851ZM103.612 34.3298C104.121 32.9799 104.794 31.3174 105.601 29.328C104.091 31.6158 103.029 33.2783 102.401 34.3298H103.597H103.612Z" fill="white"/>
<path d="M92.5159 26.7281H95.163C96.8679 26.7281 97.9895 26.7849 98.5279 26.9128C99.0663 27.0549 99.4103 27.268 99.5598 27.5807C99.7094 27.8933 99.7393 28.2343 99.6197 28.6179C99.5 29.0016 99.1561 29.7547 98.5878 30.8773L96.4791 35.0407C95.9407 36.1064 95.5219 36.8169 95.2228 37.1721C94.9237 37.5273 94.5797 37.8115 94.1909 38.0247C93.8021 38.2236 93.3833 38.3657 92.9197 38.451C92.4561 38.5362 91.813 38.5788 90.9606 38.5788H86.5039L92.501 26.7139L92.5159 26.7281ZM95.0434 28.7458L91.0952 36.5611C91.6036 36.5611 91.9476 36.4616 92.157 36.2911C92.3664 36.1064 92.6655 35.6233 93.0693 34.8275L95.4023 30.2094C95.6715 29.6695 95.821 29.3284 95.8659 29.1721C95.9108 29.0158 95.8659 28.9163 95.7612 28.8453C95.6565 28.7743 95.4172 28.7458 95.0434 28.7458Z" fill="white"/>
<path d="M71.7283 26.7988L65.7163 38.678H62.1719L68.1839 26.813L71.7283 26.7988Z" fill="white"/>
<path d="M66.1469 26.813L64.9505 29.186H62.8717L58.0711 38.6922L54.5117 38.7064L59.3273 29.2002L57.2186 29.2144L58.415 26.8414L66.1469 26.813Z" fill="white"/>
<path d="M89.881 26.7422L83.869 38.6214H80.7733L81.6557 33.236L78.9338 38.6356H75.9727L81.9697 26.7706L84.9309 26.7564L84.213 32.0992L86.9199 26.7564L89.881 26.7422Z" fill="white"/>
<path d="M73.5947 26.7847L79.502 26.7705L78.3056 29.1435L75.9427 29.1577L74.8061 31.417H77.0045L75.8679 33.6621L73.6695 33.6764L72.3385 36.2767H74.9407L73.7443 38.6497L67.5977 38.6639L73.5947 26.7847Z" fill="white"/>
<path d="M117.82 36.7741H118.403C118.523 36.7741 118.628 36.7741 118.687 36.7315C118.762 36.7173 118.807 36.6746 118.837 36.632C118.867 36.5894 118.897 36.5325 118.897 36.4757C118.897 36.3904 118.867 36.3194 118.792 36.2768C118.717 36.2199 118.613 36.1915 118.463 36.1915H117.82V36.7599V36.7741ZM117.551 37.7404V36.021H118.448C118.628 36.021 118.777 36.021 118.867 36.0636C118.972 36.092 119.046 36.1489 119.091 36.2199C119.151 36.291 119.181 36.3904 119.181 36.4757C119.181 36.6036 119.136 36.7031 119.046 36.7883C118.957 36.8736 118.807 36.9304 118.613 36.9446C118.687 36.973 118.732 37.0015 118.777 37.0299C118.852 37.0867 118.927 37.172 119.001 37.2572L119.36 37.7261H119.016L118.747 37.3709C118.672 37.2714 118.598 37.1862 118.553 37.1293C118.493 37.0725 118.448 37.0299 118.418 37.0157C118.373 37.0015 118.343 36.973 118.299 36.973C118.269 36.973 118.224 36.973 118.149 36.973H117.835V37.7404H117.566H117.551Z" fill="white"/>
<path fill-rule="evenodd" clip-rule="evenodd" d="M118.282 35.6516C119.104 35.6516 119.777 36.2058 119.777 36.9021C119.777 37.5983 119.119 38.1525 118.297 38.1667C117.474 38.1667 116.801 37.6125 116.801 36.9163C116.801 36.22 117.459 35.6516 118.282 35.6516ZM118.282 35.4385C119.254 35.4385 120.031 36.0921 120.031 36.9021C120.031 37.712 119.254 38.3799 118.297 38.3799C117.325 38.3799 116.547 37.7262 116.547 36.9163C116.547 36.1063 117.325 35.4385 118.297 35.4385" fill="white"/>
<path d="M30.7773 33.8185C30.8073 35.3247 30.8372 36.8451 30.8671 38.3514L33.8432 33.7759L30.7923 33.8185H30.7773Z" fill="white"/>
<path d="M30.9121 26.0885V26.1311V32.0281L35.0098 31.9712L38.3299 26.8558L30.8672 25.918C30.8672 25.918 30.9121 26.0316 30.9121 26.0885Z" fill="white"/>
<path d="M45.8856 27.8079L40.8456 27.1685L38.707 31.9144L45.6014 31.8008L45.8856 27.8079Z" fill="white"/>
<path d="M7.16562 32.5537L13.1029 32.4542L11.8466 23.5022L11.2484 23.4312C11.2484 23.4312 11.2035 23.4312 11.1736 23.4312H11.039L6.85156 32.6105C6.95625 32.5963 7.06094 32.5821 7.16562 32.5821" fill="white"/>
<path d="M24.3165 21.7544L27.9357 13.8113L25.9317 21.9533C30.7323 22.5643 35.518 23.1611 40.3187 23.7722L47.1981 13.1718L42.2778 24.0137C45.3586 24.3974 48.4543 24.7952 51.5351 25.1789C52.2829 25.2784 53.1951 25.4063 54.0476 25.6762L65.3837 0.82373L46.7494 0.880569L35.4133 18.6141L37.7763 8.98001C38.5689 5.89654 39.2269 3.19673 39.7504 0.894778L21.2507 0.951616L12.457 20.2624C16.4052 20.7597 20.3534 21.2571 24.3165 21.7544Z" fill="white"/>
<path d="M28.5509 26.1312C28.5509 25.9323 28.6256 25.776 28.7303 25.6481L25.1411 25.1934L23.4062 32.2129L28.5957 32.1418C28.5808 30.1383 28.5658 28.1489 28.5359 26.1454V26.1312H28.5509Z" fill="white"/>
<path d="M47.6951 33.5484C47.6503 34.4721 47.6203 35.3957 47.5755 36.3335V36.3619V36.3903C47.3811 37.6834 45.407 37.6266 45.2125 36.4188V36.3619L45.392 33.6195L37.8845 33.719L35.5664 38.806H40.9054C43.3431 38.6923 45.7808 38.5928 48.2186 38.4792L50.4768 33.52L47.6802 33.5484H47.6951Z" fill="white"/>
<path d="M28.5371 38.4508V38.4223L28.582 33.9321L22.9588 34.0458L21.7773 38.8486H28.6268C28.582 38.7207 28.5371 38.5929 28.5222 38.4508" fill="white"/>
<path d="M48.1729 28.0352L47.9336 31.7154C49.0552 31.7154 50.1918 31.7154 51.3135 31.7012L52.7193 28.6177C52.7193 28.6177 52.7043 28.6177 52.6894 28.6177L48.1729 28.0352Z" fill="white"/>
<path d="M13.7293 37.2712L13.3554 34.273C11.3365 34.3014 9.3175 34.3441 7.29854 34.3867C6.95457 34.4151 6.59564 34.3867 6.28158 34.2588C6.22176 34.2304 6.1769 34.2162 6.11708 34.1735L5.38427 35.765C5.30949 36.4755 5.35436 37.1718 5.6086 37.8112C5.75815 38.2091 5.98248 38.5643 6.26663 38.8911L16.496 38.8627L18.6645 34.1167L15.6884 34.1735C15.7931 35.154 15.9128 36.1202 16.0175 37.1007V37.1291C16.1221 38.7632 14.148 38.9764 13.7293 37.2996V37.2712Z" fill="white"/>
<path d="M15.3891 32.3407L19.5017 32.2838L22.8667 24.9091L14.1328 23.8149L15.3891 32.3407Z" fill="white"/>
<path fill-rule="evenodd" clip-rule="evenodd" d="M13.4308 23.1899L14.8665 32.8666L29.2086 32.6535C29.1936 30.4794 29.1637 28.3053 29.1488 26.1313C29.1488 25.6482 30.2106 25.6197 30.3153 26.1597V32.554L46.1529 32.3124L46.5118 27.3391L13.4308 23.1757V23.1899ZM6.80562 14.5363C15.9433 23.2894 -1.2403 35.1686 7.1496 40.3408C8.04691 40.895 8.5853 40.7671 9.13864 40.7387C22.2843 39.9856 35.4449 39.5735 48.5906 38.9909C50.3852 38.7778 50.8488 38.6641 51.2377 37.4279C52.0752 34.9838 52.9127 32.554 53.7502 30.11C54.2886 29.0584 54.2287 28.2627 52.7631 28.078L47.6035 27.4101L47.2895 32.2272C48.8747 32.213 50.2805 32.213 51.8658 32.1988C52.7332 32.1988 52.8229 32.9519 51.7611 32.9661L47.11 33.0229C47.0502 34.1455 47.0203 35.1828 46.9605 36.3053C46.8558 37.0016 45.8987 36.9305 45.794 36.3195L46.0183 33.0655L30.1657 33.2929C30.1956 34.998 30.2255 36.7174 30.2555 38.4225C30.2405 39.1756 29.2086 39.1472 29.1189 38.3941L29.1787 33.3924L15.0161 33.6623C15.1507 34.8275 15.2703 35.9927 15.4049 37.1437C15.4647 38.1383 14.5674 38.1952 14.3132 37.1863L13.8944 33.7334C11.681 33.776 9.46766 33.8186 7.26924 33.8471C6.07282 33.9323 5.84849 33.1366 7.19446 33.0655L13.7897 32.9519L12.3989 23.0194C9.57235 22.6784 13.3261 23.1331 10.4996 22.792C9.55739 22.5078 9.52748 20.6038 11.2025 20.6322C27.0849 22.6357 35.5945 23.7157 51.477 25.705C56.143 26.2734 56.2477 27.7085 55.7542 29.5132C54.8419 32.5824 54.0792 35.1828 53.1819 38.252C52.5388 40.4261 50.4151 40.7671 48.1419 40.9518C47.0652 41.0371 7.98709 42.387 9.87145 42.387C25.1258 42.4154 33.6653 42.117 49.0841 41.9323C51.7761 42.046 51.9705 43.0549 52.0602 43.8648C50.8638 43.8648 49.7272 43.8364 48.5308 43.8364C49.0991 42.316 44.5975 42.3444 42.6534 43.8364C31.1229 43.9216 21.7459 44.0069 10.2154 44.0922C9.52748 42.387 7.05986 42.4865 4.08377 44.0211C3.35096 44.0211 2.63311 44.0069 1.9003 43.9927C1.1675 43.8932 0.0308964 43.7085 1.13759 42.8275C2.10968 42.3444 2.84248 41.9749 3.81457 41.4918C3.94917 41.435 3.96413 41.3355 3.82953 41.165L3.27619 40.0282C-0.64209 31.8861 9.82659 25.9608 6.89536 18.1739C6.47661 17.0656 5.98309 16.554 5.23532 15.7441C4.18846 14.5363 5.81858 13.6837 6.80562 14.5505" fill="white"/>
<path fill-rule="evenodd" clip-rule="evenodd" d="M7.2529 43.9923C7.91093 43.9923 8.19508 44.2481 7.89597 44.5749C7.59687 44.9017 6.83415 45.1575 6.17612 45.1575C5.51809 45.1575 5.23394 44.9017 5.53304 44.5749C5.83215 44.2481 6.59487 43.9923 7.2529 43.9923ZM7.94084 43.2534C9.42141 43.2534 10.0794 43.836 9.40645 44.5749C8.73347 45.3138 6.9837 45.9106 5.50313 45.9106C4.02256 45.9106 3.36453 45.328 4.03752 44.5891C4.71051 43.8644 6.46027 43.2534 7.94084 43.2534Z" fill="white"/>
<path fill-rule="evenodd" clip-rule="evenodd" d="M45.8974 43.8644C46.5555 43.8644 46.8396 44.1202 46.5405 44.447C46.2414 44.7738 45.4787 45.0296 44.8207 45.0296C44.1626 45.0296 43.8785 44.7738 44.1776 44.447C44.4767 44.1202 45.2394 43.8644 45.8974 43.8644ZM46.5854 43.1255C48.0659 43.1255 48.724 43.7081 48.051 44.447C47.378 45.1859 45.6282 45.7827 44.1477 45.7827C42.6671 45.7827 42.0091 45.2001 42.6821 44.4612C43.355 43.7365 45.1048 43.1255 46.5854 43.1255Z" fill="white"/>
</svg>
